<svg width="36" height="36" viewBox="0 0 36 36" fill="none" xmlns="http://www.w3.org/2000/svg">
<path d="M8.20497 18.795C7.99539 18.5835 7.87781 18.2978 7.87781 18C7.87781 17.7022 7.99539 17.4165 8.20497 17.205L15.705 9.70499C15.808 9.59445 15.9322 9.5058 16.0702 9.44431C16.2082 9.38283 16.3571 9.34976 16.5082 9.3471C16.6592 9.34443 16.8093 9.37222 16.9494 9.4288C17.0894 9.48538 17.2167 9.5696 17.3235 9.67643C17.4304 9.78326 17.5146 9.91051 17.5712 10.0506C17.6277 10.1907 17.6555 10.3407 17.6529 10.4918C17.6502 10.6428 17.6171 10.7918 17.5556 10.9298C17.4942 11.0678 17.4055 11.192 17.295 11.295L11.715 16.875H27C27.2983 16.875 27.5845 16.9935 27.7955 17.2045C28.0064 17.4155 28.125 17.7016 28.125 18C28.125 18.2984 28.0064 18.5845 27.7955 18.7955C27.5845 19.0065 27.2983 19.125 27 19.125H11.715L17.295 24.705C17.4937 24.9182 17.6019 25.2003 17.5967 25.4918C17.5916 25.7832 17.4735 26.0613 17.2674 26.2674C17.0613 26.4735 16.7832 26.5916 16.4918 26.5967C16.2003 26.6019 15.9182 26.4937 15.705 26.295L8.20497 18.795Z" fill="#3D5096"/>
</svg>
