<svg width="36" height="36" viewBox="0 0 36 36" fill="none" xmlns="http://www.w3.org/2000/svg">
<path d="M28 25.7937V15.5397C28 15.3524 27.9571 15.1677 27.8746 15.0002C27.7922 14.8327 27.6725 14.687 27.525 14.5746L19.2125 8.24127C19.0069 8.08466 18.7569 8 18.5 8C18.2431 8 17.9931 8.08466 17.7875 8.24127L9.475 14.5746C9.32752 14.687 9.20781 14.8327 9.12537 15.0002C9.04292 15.1677 9 15.3524 9 15.5397V25.7937C9 26.1136 9.12511 26.4204 9.34781 26.6467C9.57051 26.8729 9.87256 27 10.1875 27H14.9375C15.2524 27 15.5545 26.8729 15.7772 26.6467C15.9999 26.4204 16.125 26.1136 16.125 25.7937V22.1746C16.125 21.8547 16.2501 21.5478 16.4728 21.3216C16.6955 21.0954 16.9976 20.9683 17.3125 20.9683H19.6875C20.0024 20.9683 20.3045 21.0954 20.5272 21.3216C20.7499 21.5478 20.875 21.8547 20.875 22.1746V25.7937C20.875 26.1136 21.0001 26.4204 21.2228 26.6467C21.4455 26.8729 21.7476 27 22.0625 27H26.8125C27.1274 27 27.4295 26.8729 27.6522 26.6467C27.8749 26.4204 28 26.1136 28 25.7937Z" stroke="#3D5096" stroke-width="2" stroke-linecap="round" stroke-linejoin="round"/>
</svg>
