<?xml version="1.0" encoding="UTF-8"?><svg id="Layer_1" xmlns="http://www.w3.org/2000/svg" viewBox="0 0 1080 339"><defs><style>.cls-1{fill:#3c53a6;}</style></defs><path class="cls-1" d="M4.61,284.09c2.3-28.8,36.29-51.27,39.17-90.44l4.61-66.25c2.88-39.17-13.83-51.27-11.52-80.07,1.73-19.59,10.95-28.23,29.96-29.38v-.58h35.72c35.14,0,46.08,17.28,58.18,46.66,11.52,28.23,46.08,123.85,46.08,123.85l48.39-128.46c8.64-20.74,24.77-42.05,61.64-42.05s56.45,9.22,58.76,34.56c2.3,31.68-14.4,46.66-10.95,85.83l4.03,55.88c2.88,39.17,21.31,54.15,24.19,85.83,1.73,25.35-20.74,33.99-57.61,33.99s-61.64-8.64-63.94-33.99c-2.3-31.68,14.4-46.66,11.52-85.83l-8.06-105.42-76.04,194.71c-11.52,30.53-32.26,30.53-43.78,0L81.22,93.99l-7.49,99.66c-2.88,39.17,27.65,61.64,25.35,90.44-1.73,21.31-23.62,29.38-50.12,29.38s-46.08-8.07-44.36-29.38Z"/><path class="cls-1" d="M397.47,165.42c0-81.8,74.31-148.05,165.91-148.05s165.33,66.25,165.33,148.05-74.31,148.05-165.33,148.05-165.91-66.25-165.91-148.05ZM505.2,165.42c0,66.25,25.92,119.25,58.18,119.25s57.61-53,57.61-119.25-25.92-118.67-57.61-118.67-58.18,53-58.18,118.67Z"/><path class="cls-1" d="M755.21,137.77c0-39.17-17.28-54.15-17.28-85.83,0-25.35,23.04-34.56,59.91-34.56s59.91,9.22,59.91,34.56c0,31.68-17.86,46.66-17.86,85.83v58.18c0,51.85,24.19,88.71,59.33,88.71s58.76-35.72,58.76-88.71v-58.18c0-39.17-17.28-54.15-17.28-85.83,0-25.35,23.04-34.56,59.91-34.56s59.91,9.22,59.91,34.56c0,31.68-17.86,46.66-17.86,85.83v55.88c0,39.75,17.86,55.3,17.86,83.53s-21.89,36.29-59.91,36.29c-28.8,0-38.6-10.37-41.48-29.38-16.71,19.01-42.05,29.38-77.77,29.38-78.92,0-126.16-37.44-126.16-116.94v-58.76Z"/></svg>